<svg width="685" height="278" viewBox="0 0 685 278" fill="none" xmlns="http://www.w3.org/2000/svg">
<path d="M349.986 155.772H336.289V239.148H375.713V226.88H349.986V155.772Z" fill="#EF3B2D"/>
<path d="M424.07 191.147C422.322 188.368 419.842 186.185 416.626 184.596C413.411 183.008 410.174 182.214 406.919 182.214C402.708 182.214 398.859 182.988 395.365 184.536C391.87 186.084 388.873 188.211 386.372 190.909C383.871 193.609 381.924 196.726 380.536 200.258C379.145 203.793 378.451 207.506 378.451 211.396C378.451 215.367 379.145 219.098 380.536 222.591C381.924 226.087 383.871 229.184 386.372 231.882C388.873 234.582 391.87 236.706 395.365 238.254C398.858 239.802 402.708 240.577 406.919 240.577C410.174 240.577 413.411 239.782 416.626 238.195C419.842 236.608 422.323 234.424 424.07 231.644V239.148H437.053V183.644H424.07V191.147ZM422.88 218.184C422.085 220.329 420.974 222.195 419.545 223.783C418.115 225.371 416.388 226.642 414.363 227.594C412.338 228.547 410.094 229.023 407.633 229.023C405.171 229.023 402.947 228.547 400.962 227.594C398.977 226.641 397.271 225.371 395.842 223.783C394.412 222.195 393.319 220.329 392.566 218.184C391.81 216.041 391.435 213.777 391.435 211.396C391.435 209.013 391.81 206.75 392.566 204.606C393.319 202.463 394.412 200.598 395.842 199.009C397.271 197.422 398.978 196.15 400.962 195.197C402.947 194.244 405.171 193.768 407.633 193.768C410.094 193.768 412.338 194.244 414.363 195.197C416.388 196.151 418.115 197.422 419.545 199.009C420.974 200.598 422.085 202.463 422.88 204.606C423.672 206.75 424.071 209.013 424.071 211.396C424.07 213.777 423.672 216.041 422.88 218.184Z" fill="#EF3B2D"/>
<path d="M529.597 191.147C527.85 188.368 525.369 186.185 522.153 184.596C518.938 183.008 515.702 182.214 512.447 182.214C508.236 182.214 504.386 182.988 500.892 184.536C497.398 186.084 494.401 188.211 491.899 190.909C489.398 193.609 487.451 196.726 486.063 200.258C484.672 203.793 483.979 207.506 483.979 211.396C483.979 215.367 484.672 219.098 486.063 222.591C487.451 226.087 489.398 229.184 491.899 231.882C494.401 234.582 497.397 236.706 500.892 238.254C504.385 239.802 508.236 240.577 512.447 240.577C515.702 240.577 518.938 239.782 522.153 238.195C525.369 236.608 527.851 234.424 529.597 231.644V239.148H542.58V183.644H529.597V191.147ZM528.406 218.184C527.612 220.329 526.5 222.195 525.071 223.783C523.641 225.371 521.915 226.642 519.89 227.594C517.864 228.547 515.62 229.023 513.159 229.023C510.697 229.023 508.474 228.547 506.489 227.594C504.503 226.641 502.797 225.371 501.368 223.783C499.938 222.195 498.846 220.329 498.092 218.184C497.336 216.041 496.961 213.777 496.961 211.396C496.961 209.013 497.336 206.75 498.092 204.606C498.845 202.463 499.938 200.598 501.368 199.009C502.797 197.422 504.504 196.15 506.489 195.197C508.474 194.244 510.697 193.768 513.159 193.768C515.62 193.768 517.864 194.244 519.89 195.197C521.915 196.151 523.641 197.422 525.071 199.009C526.5 200.598 527.612 202.463 528.406 204.606C529.199 206.75 529.597 209.013 529.597 211.396C529.597 213.777 529.199 216.041 528.406 218.184Z" fill="#EF3B2D"/>
<path d="M685.001 155.772H672.02V239.148H685.001V155.772Z" fill="#EF3B2D"/>
<path d="M447.297 239.148H460.279V196.418H482.553V183.645H447.297V239.148Z" fill="#EF3B2D"/>
<path d="M594.632 183.645L578.315 226.148L561.997 183.645H548.848L570.157 239.148H586.473L607.782 183.645H594.632Z" fill="#EF3B2D"/>
<path d="M636.095 182.217C620.196 182.217 607.613 195.282 607.613 211.397C607.613 229.212 619.792 240.577 637.758 240.577C647.814 240.577 654.234 236.732 662.076 228.359L653.305 221.573C653.3 221.579 646.686 230.265 636.808 230.265C625.327 230.265 620.494 221.009 620.494 216.22H663.564C665.827 197.884 653.772 182.217 636.095 182.217ZM620.528 206.573C620.628 205.505 622.123 192.528 635.991 192.528C649.859 192.528 651.544 205.503 651.641 206.573H620.528Z" fill="#EF3B2D"/>
<path d="M296.779 155.122C296.759 155.048 296.718 154.984 296.693 154.914C296.644 154.783 296.603 154.651 296.534 154.531C296.487 154.45 296.42 154.385 296.365 154.311C296.292 154.213 296.231 154.109 296.144 154.024C296.074 153.952 295.983 153.9 295.903 153.838C295.812 153.767 295.732 153.687 295.631 153.628C295.631 153.628 295.63 153.628 295.629 153.628C295.629 153.628 295.629 153.627 295.628 153.626L265.974 136.553C265.212 136.114 264.272 136.114 263.509 136.553L233.856 153.624C233.855 153.624 233.855 153.625 233.855 153.626C233.854 153.626 233.853 153.626 233.853 153.627C233.752 153.685 233.671 153.766 233.581 153.836C233.501 153.899 233.41 153.951 233.34 154.022C233.254 154.108 233.192 154.212 233.119 154.309C233.064 154.383 232.997 154.45 232.95 154.529C232.881 154.649 232.84 154.782 232.791 154.912C232.766 154.983 232.725 155.047 232.705 155.12C232.649 155.327 232.619 155.544 232.619 155.765V188.19L207.909 202.417V138.985C207.909 138.764 207.879 138.547 207.823 138.339C207.803 138.266 207.762 138.202 207.736 138.131C207.688 138.001 207.647 137.868 207.578 137.749C207.531 137.668 207.464 137.602 207.409 137.528C207.336 137.431 207.275 137.327 207.188 137.241C207.118 137.17 207.027 137.118 206.947 137.056C206.856 136.985 206.776 136.904 206.675 136.846C206.675 136.846 206.674 136.846 206.673 136.845C206.673 136.845 206.673 136.844 206.672 136.844L177.019 119.772C176.256 119.333 175.316 119.333 174.554 119.772L144.901 136.844C144.9 136.844 144.9 136.844 144.899 136.845C144.899 136.845 144.898 136.845 144.898 136.846C144.797 136.904 144.715 136.985 144.626 137.056C144.546 137.118 144.455 137.171 144.384 137.241C144.299 137.327 144.236 137.431 144.164 137.528C144.109 137.602 144.042 137.669 143.995 137.749C143.926 137.868 143.885 138.002 143.836 138.131C143.81 138.202 143.77 138.266 143.75 138.339C143.694 138.546 143.664 138.764 143.664 138.985V240.544C143.664 241.428 144.137 242.244 144.903 242.686L204.207 276.829C204.337 276.903 204.476 276.948 204.615 276.997C204.679 277.02 204.739 277.058 204.806 277.076C205.013 277.131 205.227 277.159 205.44 277.159C205.653 277.159 205.866 277.132 206.074 277.076C206.131 277.061 206.183 277.027 206.24 277.007C206.386 276.956 206.534 276.908 206.672 276.829L265.976 242.686C266.742 242.245 267.215 241.428 267.215 240.544V208.12L295.629 191.761C296.395 191.32 296.867 190.503 296.867 189.619V155.765C296.865 155.546 296.836 155.329 296.779 155.122ZM205.432 237.702L180.77 223.745L206.67 208.834C206.67 208.834 206.67 208.834 206.671 208.833L235.09 192.471L259.774 206.682L241.663 217.02L205.432 237.702ZM262.271 174.267V202.418L251.894 196.443L237.56 188.191V160.041L247.938 166.015L262.271 174.267ZM264.742 141.547L289.441 155.767L264.742 169.987L240.042 155.767L264.742 141.547ZM188.633 213.514L178.256 219.489V157.485L192.59 149.233L202.967 143.259V205.262L188.633 213.514ZM175.785 124.764L200.485 138.985L175.785 153.205L151.085 138.985L175.785 124.764ZM148.604 143.26L158.981 149.234L173.314 157.486V223.763C173.314 223.765 173.315 223.766 173.315 223.768C173.315 223.769 173.314 223.771 173.314 223.773C173.314 223.867 173.341 223.956 173.352 224.05C173.366 224.171 173.369 224.294 173.401 224.411C173.401 224.412 173.401 224.415 173.402 224.416C173.429 224.514 173.481 224.601 173.519 224.694C173.561 224.797 173.592 224.906 173.649 225.003C173.649 225.005 173.65 225.008 173.652 225.01C173.703 225.098 173.776 225.169 173.837 225.25C173.904 225.337 173.96 225.433 174.039 225.511C174.042 225.514 174.044 225.517 174.046 225.519C174.116 225.588 174.204 225.638 174.282 225.698C174.371 225.767 174.45 225.846 174.549 225.904C174.552 225.905 174.556 225.906 174.559 225.908C174.563 225.91 174.565 225.913 174.569 225.914L202.967 241.986V270.415L148.604 239.117V143.26H148.604ZM262.271 239.117L207.909 270.415V241.981L248.169 218.999L262.271 210.949V239.117ZM291.923 188.191L267.212 202.418V174.267L281.546 166.015L291.923 160.041V188.191Z" fill="#EF3B2D"/>
<path d="M167.182 29.2979H142.456C141.637 29.2973 140.845 29.5892 140.223 30.1208C139.6 30.6525 139.188 31.3889 139.061 32.1975L129.06 95.6039C129.014 95.8981 129.032 96.1988 129.114 96.4852C129.195 96.7717 129.337 97.0371 129.531 97.2632C129.725 97.4893 129.966 97.6708 130.236 97.795C130.507 97.9192 130.801 97.9833 131.099 97.9829H142.904C143.723 97.9833 144.515 97.6909 145.138 97.1586C145.76 96.6262 146.172 95.8889 146.299 95.0796L148.996 77.9779C149.123 77.1693 149.534 76.4325 150.156 75.9002C150.778 75.3679 151.569 75.0751 152.388 75.0746H160.215C176.503 75.0746 185.904 67.1927 188.359 51.5734C189.465 44.74 188.406 39.3708 185.206 35.6106C181.692 31.4817 175.458 29.2979 167.182 29.2979ZM170.035 52.4556C168.683 61.3282 161.904 61.3282 155.349 61.3282H151.617L154.235 44.758C154.312 44.2733 154.559 43.8317 154.932 43.5129C155.305 43.1941 155.78 43.019 156.271 43.019H157.981C162.446 43.019 166.658 43.019 168.835 45.5643C170.133 47.0829 170.53 49.339 170.035 52.4556ZM241.096 52.17H229.255C228.764 52.17 228.289 52.3451 227.916 52.664C227.543 52.9828 227.296 53.4243 227.219 53.9091L226.695 57.2209L225.867 56.0206C223.303 52.3001 217.587 51.0564 211.882 51.0564C198.797 51.0564 187.621 60.9667 185.445 74.8685C184.313 81.8032 185.922 88.4342 189.856 93.0585C193.464 97.3104 198.627 99.082 204.77 99.082C215.313 99.082 221.159 92.3028 221.159 92.3028L220.631 95.593C220.584 95.8872 220.602 96.188 220.682 96.4749C220.763 96.7617 220.904 97.0277 221.097 97.2545C221.291 97.4813 221.531 97.6636 221.801 97.7887C222.071 97.9138 222.366 97.9788 222.663 97.9793H233.329C234.148 97.9797 234.941 97.6873 235.563 97.1549C236.186 96.6226 236.598 95.8852 236.724 95.076L243.124 54.549C243.171 54.2555 243.154 53.9553 243.074 53.669C242.993 53.3828 242.852 53.1174 242.659 52.8912C242.466 52.665 242.226 52.4834 241.957 52.3589C241.687 52.2343 241.393 52.1699 241.096 52.17ZM224.591 75.2156C223.448 81.9804 218.079 86.5215 211.231 86.5215C207.793 86.5215 205.045 85.4188 203.28 83.329C201.53 81.2537 200.865 78.2997 201.422 75.0096C202.489 68.3027 207.948 63.6133 214.691 63.6133C218.054 63.6133 220.787 64.7305 222.587 66.8384C224.392 68.9679 225.108 71.9399 224.591 75.2156ZM304.158 52.17H292.26C291.698 52.1709 291.146 52.3086 290.65 52.5714C290.154 52.8341 289.73 53.2139 289.414 53.6777L273.003 77.8514L266.047 54.6213C265.833 53.9128 265.397 53.2919 264.803 52.8504C264.209 52.4089 263.489 52.1703 262.749 52.17H251.056C250.728 52.1691 250.405 52.2466 250.112 52.3961C249.82 52.5456 249.568 52.7627 249.377 53.0294C249.185 53.2961 249.06 53.6046 249.012 53.9293C248.964 54.254 248.994 54.5855 249.1 54.8961L262.207 93.3586L249.885 110.753C249.666 111.062 249.536 111.424 249.51 111.802C249.483 112.179 249.561 112.556 249.734 112.892C249.908 113.228 250.171 113.51 250.494 113.707C250.817 113.903 251.188 114.007 251.566 114.007H263.451C264.006 114.008 264.552 113.874 265.044 113.617C265.536 113.36 265.958 112.988 266.274 112.532L305.85 55.4059C306.065 55.0968 306.191 54.735 306.214 54.3595C306.238 53.984 306.158 53.6093 305.984 53.2759C305.809 52.9425 305.547 52.6632 305.225 52.4683C304.904 52.2733 304.535 52.1701 304.158 52.17Z" fill="#253B80"/>
<path d="M343.552 29.2976H318.822C318.004 29.2979 317.213 29.5902 316.591 30.1217C315.969 30.6533 315.558 31.3893 315.43 32.1973L305.43 95.6036C305.383 95.8973 305.401 96.1976 305.482 96.4838C305.562 96.77 305.704 97.0353 305.897 97.2615C306.09 97.4876 306.33 97.6692 306.6 97.7936C306.87 97.9181 307.164 97.9826 307.462 97.9826H320.152C320.725 97.9818 321.278 97.7767 321.713 97.4042C322.148 97.0317 322.435 96.5163 322.524 95.9507L325.362 77.9776C325.489 77.169 325.9 76.4322 326.522 75.8999C327.144 75.3676 327.935 75.0748 328.754 75.0743H336.578C352.87 75.0743 362.266 67.1924 364.725 51.5731C365.835 44.7397 364.768 39.3705 361.569 35.6104C358.058 31.4814 351.828 29.2976 343.552 29.2976ZM346.405 52.4553C345.056 61.3279 338.277 61.3279 331.718 61.3279H327.991L330.612 44.7578C330.687 44.273 330.933 43.8311 331.306 43.5121C331.679 43.1931 332.153 43.0181 332.644 43.0187H334.354C338.816 43.0187 343.032 43.0187 345.208 45.564C346.506 47.0826 346.9 49.3387 346.405 52.4553ZM417.462 52.1697H405.628C405.137 52.1683 404.662 52.3431 404.289 52.6622C403.916 52.9814 403.67 53.4237 403.596 53.9088L403.072 57.2206L402.24 56.0203C399.677 52.2998 393.964 51.0561 388.259 51.0561C375.174 51.0561 364.002 60.9664 361.825 74.8683C360.697 81.8029 362.299 88.4339 366.233 93.0582C369.848 97.3101 375.004 99.0817 381.147 99.0817C391.69 99.0817 397.536 92.3025 397.536 92.3025L397.008 95.5927C396.961 95.8875 396.979 96.189 397.06 96.4763C397.14 96.7637 397.283 97.03 397.477 97.257C397.671 97.4839 397.912 97.666 398.183 97.7907C398.454 97.9153 398.749 97.9796 399.048 97.979H409.71C410.528 97.9785 411.32 97.6858 411.942 97.1535C412.563 96.6212 412.975 95.8843 413.101 95.0757L419.505 54.5487C419.55 54.2543 419.531 53.9535 419.449 53.6671C419.367 53.3806 419.225 53.1153 419.03 52.8892C418.836 52.6632 418.596 52.4819 418.325 52.3577C418.054 52.2335 417.76 52.1693 417.462 52.1697ZM400.957 75.2153C399.821 81.9801 394.445 86.5212 387.597 86.5212C384.166 86.5212 381.411 85.4185 379.646 83.3287C377.897 81.2534 377.238 78.2994 377.788 75.0093C378.862 68.3024 384.314 63.613 391.057 63.613C394.42 63.613 397.153 64.7302 398.954 66.8381C400.765 68.9676 401.481 71.9396 400.957 75.2153ZM431.421 31.0367L421.273 95.6036C421.226 95.8973 421.244 96.1976 421.324 96.4838C421.405 96.77 421.547 97.0353 421.74 97.2615C421.933 97.4876 422.173 97.6692 422.443 97.7936C422.713 97.9181 423.007 97.9826 423.305 97.9826H433.508C435.203 97.9826 436.642 96.7533 436.903 95.0793L446.911 31.6766C446.957 31.3827 446.939 31.0822 446.859 30.7958C446.778 30.5095 446.636 30.2439 446.443 30.0175C446.25 29.7911 446.01 29.6092 445.74 29.4843C445.47 29.3594 445.176 29.2945 444.879 29.2939H433.453C432.963 29.2957 432.489 29.472 432.117 29.7913C431.744 30.1107 431.498 30.5521 431.421 31.0367Z" fill="#179BD7"/>
<path d="M26.3682 110.306L28.2592 98.2948L24.047 98.1971H3.93359L17.9114 9.5686C17.953 9.2978 18.0906 9.05097 18.2989 8.8731C18.5073 8.69524 18.7727 8.59818 19.0467 8.59963H52.9608C64.2197 8.59963 71.9895 10.9425 76.0462 15.5668C77.948 17.7362 79.1592 20.0031 79.7449 22.4979C80.3596 25.1156 80.3704 28.243 79.7702 32.0575L79.7268 32.3359V34.78L81.6286 35.8574C83.0805 36.593 84.3855 37.588 85.4792 38.7933C87.1062 40.6481 88.1584 43.0054 88.6031 45.8003C89.0623 48.6746 88.9104 52.095 88.1584 55.9673C87.2906 60.4216 85.8878 64.3011 83.9932 67.4756C82.3216 70.3194 80.0741 72.7825 77.3948 74.7068C74.8784 76.4929 71.8883 77.8487 68.5077 78.7164C65.232 79.5697 61.4971 80 57.4007 80H54.7613C52.874 80 51.0409 80.6797 49.6019 81.8981C48.1649 83.1296 47.2117 84.8311 46.9119 86.6996L46.713 87.7807L43.3723 108.95L43.2204 109.727C43.1806 109.973 43.1119 110.096 43.0107 110.179C42.9126 110.259 42.7903 110.304 42.6636 110.306H26.3682Z" fill="#253B80"/>
<path d="M83.4183 32.6172C83.317 33.2644 83.2013 33.926 83.0712 34.6058C78.5987 57.5683 63.2976 65.5008 43.7554 65.5008H33.8053C31.4154 65.5008 29.4016 67.2363 29.0292 69.5937L23.9348 101.902L22.4922 111.061C22.4347 111.424 22.4567 111.795 22.5565 112.149C22.6564 112.503 22.8317 112.831 23.0705 113.111C23.3093 113.391 23.6059 113.615 23.9399 113.77C24.2739 113.924 24.6372 114.004 25.005 114.004H42.6527C44.7425 114.004 46.5177 112.485 46.8467 110.424L47.0203 109.528L50.343 88.4416L50.5563 87.2847C50.8817 85.2166 52.6606 83.698 54.7504 83.698H57.3897C74.4878 83.698 87.8727 76.7561 91.7847 56.668C93.419 48.2762 92.5729 41.2693 88.2487 36.3412C86.8781 34.8168 85.2413 33.5548 83.4183 32.6172Z" fill="#179BD7"/>
<path d="M78.7574 30.7511C77.3294 30.338 75.8766 30.0156 74.4079 29.7858C71.5057 29.3398 68.5727 29.1258 65.6365 29.1458H39.0548C38.0432 29.145 37.0646 29.5062 36.2961 30.164C35.5276 30.8218 35.0197 31.7329 34.8643 32.7325L29.2096 68.5483L29.0469 69.5932C29.223 68.4531 29.8015 67.4136 30.6775 66.6629C31.5536 65.9122 32.6694 65.4998 33.8231 65.5004H43.7731C63.3153 65.5004 78.6164 57.5642 83.0889 34.6053C83.2227 33.9256 83.3347 33.264 83.436 32.6168C82.2558 31.9979 81.0258 31.479 79.7589 31.0657C79.4268 30.9555 79.0929 30.8506 78.7574 30.7511Z" fill="#222D65"/>
<path d="M34.8516 32.7299C35.0056 31.73 35.5132 30.8185 36.2821 30.161C37.0511 29.5035 38.0303 29.1437 39.042 29.1468H65.6237C68.7729 29.1468 71.7123 29.3529 74.3951 29.7868C76.2105 30.0721 78.0008 30.4988 79.7497 31.0631C81.0694 31.5006 82.2951 32.0176 83.4268 32.6142C84.7573 24.1284 83.4159 18.3507 78.8278 13.119C73.7696 7.35938 64.6403 4.89355 52.9584 4.89355H19.0443C16.658 4.89355 14.6225 6.62903 14.2537 8.99L0.127626 98.5297C0.0618294 98.9454 0.0868628 99.3705 0.201004 99.7756C0.315146 100.181 0.515687 100.556 0.788832 100.876C1.06198 101.197 1.40124 101.454 1.7833 101.631C2.16535 101.807 2.58112 101.899 3.00201 101.899H23.9398L29.1968 68.5457L34.8516 32.7299Z" fill="#253B80"/>
</svg>
